#!OML:ASF E:\Steps\Project 1\Capture day 1\Session 2\Subject.ASF
:FULLY-SPECIFIED
:DEGREES
263
root 8.6645 16.1163 27.9654 -151.875 4.28172 175.498
lowerback -26.1272 0.446139 -8.24792
upperback -0.340953 4.202 -3.60901
thorax 14.0482 1.72374 2.18293
lowerneck -6.2927 -1.50861 -1.01539
upperneck 15.3213 -2.93668 3.00963
head 5.71759 -1.48406 0.892
rclavicle 3.10104e-014 -9.14409e-015
rhumerus -33.4812 -11.3499 -85.423
rradius 39.7433
rwrist -1.95981
rhand -8.18142 -54.7941
rfingers 7.12502
rthumb 17.7343 -84.0054
lclavicle 3.10104e-014 -9.14409e-015
lhumerus -36.7393 17.5364 71.2505
lradius 19.2515
lwrist -10.9097
lhand -20.4698 -11.0285
lfingers 7.12502
lthumb 5.88624 18.8697
rfemur -19.369 9.46355 16.9976
rtibia 22.3792
rfoot -27.3027 -9.30357
rtoes -37.1765
lfemur -40.9152 -8.24104 -21.3399
ltibia 14.275
lfoot -2.21989 4.35684
ltoes -35.0264
264
root 8.64268 16.1243 27.8744 -151.888 4.43481 175.611
lowerback -26.2953 0.442185 -8.24966
upperback -0.316851 4.19931 -3.52641
thorax 14.1628 1.70868 2.28393
lowerneck -6.2837 -1.48448 -1.09263
upperneck 15.2618 -2.88552 2.99937
head 5.69712 -1.4629 0.905514
rclavicle -1.59028e-015 -2.10712e-014
rhumerus -33.5228 -10.9906 -85.3149
rradius 39.814
rwrist -2.01084
rhand -8.15327 -55.295
rfingers 7.12502
rthumb 17.7614 -84.5038
lclavicle -1.59028e-015 -2.10712e-014
lhumerus -36.7005 17.1752 71.7732
lradius 19.6638
lwrist -10.4179
lhand -20.7769 -10.7071
lfingers 7.12502
lthumb 5.58976 19.1992
rfemur -19.8547 9.32006 16.9885
rtibia 24.0285
rfoot -26.9304 -8.67602
rtoes -36.5307
lfemur -40.4351 -8.15677 -21.4073
ltibia 14.0523
lfoot -2.52103 4.35117
ltoes -33.3944
265
root 8.62354 16.1304 27.7878 -151.848 4.5405 175.665
lowerback -26.2896 0.287644 -8.45836
upperback -0.435177 4.02467 -3.34397
thorax 14.0042 1.61849 2.54741
lowerneck -5.98624 -1.41026 -1.18017
upperneck 15.0839 -2.75349 2.89982
head 5.58702 -1.41495 0.901144
rclavicle -2.82274e-014 -2.38542e-015
rhumerus -33.8525 -10.3624 -85.0996
rradius 39.934
rwrist -2.13311
rhand -7.98643 -55.5001
rfingers 7.12502
rthumb 17.9219 -84.6943
lclavicle -2.82274e-014 -2.38542e-015
lhumerus -36.9397 17.0787 72.1275
lradius 20.0898
lwrist -9.97524
lhand -20.746 -10.3571
lfingers 7.12502
lthumb 5.61961 19.5484
rfemur -20.4174 9.02764 16.9753
rtibia 25.3191
rfoot -26.0109 -8.56809
rtoes -37.6107
lfemur -40.0633 -7.89784 -21.6531
ltibia 13.9737
lfoot -2.74493 4.03247
ltoes -33.1129
266
root 8.60254 16.1402 27.6997 -151.838 4.57683 175.682
lowerback -26.4765 0.372602 -8.38263
upperback -0.326543 4.15441 -3.43179
thorax 14.2391 1.67008 2.45839
lowerneck -6.29765 -1.48924 -1.11706
upperneck 15.2347 -2.90505 3.10685
head 5.69335 -1.46651 0.941825
rclavicle -2.28602e-014 2.3059e-014
rhumerus -33.7886 -10.67 -84.9685
rradius 39.9209
rwrist -2.11765
rhand -8.08322 -55.1271
rfingers 7.12502
rthumb 17.8288 -84.3298
lclavicle -2.28602e-014 2.3059e-014
lhumerus -36.4684 16.6836 72.4711
lradius 20.3559
lwrist -9.76738
lhand -20.544 -10.3349
lfingers 7.12502
lthumb 5.81464 19.5653
rfemur -21.0363 8.5991 16.8944
rtibia 26.8492
rfoot -25.3408 -7.97313
rtoes -37.2336
lfemur -39.6708 -7.69856 -21.9613
ltibia 13.9803
lfoot -3.01899 3.73642
ltoes -34.0351
267
root 8.5818 16.1533 27.6127 -151.891 4.50667 175.766
lowerback -26.3609 0.366417 -8.34421
upperback -0.352851 4.11018 -3.39767
thorax 14.1461 1.65558 2.455
lowerneck -6.40437 -1.45646 -1.03083
upperneck 15.3394 -2.87914 3.109
head 5.74291 -1.44874 0.928531
rclavicle 2.40529e-014 5.76476e-014
rhumerus -33.9323 -10.7722 -84.7511
rradius 39.9229
rwrist -2.04932
rhand -7.9865 -54.5177
rfingers 7.12502
rthumb 17.9218 -83.7119
lclavicle 2.40529e-014 5.76476e-014
lhumerus -36.4634 16.1701 72.888
lradius 20.8325
lwrist -9.43205
lhand -20.7487 -10.2347
lfingers 7.12502
lthumb 5.61701 19.6709
rfemur -21.7339 7.90617 16.9503
rtibia 28.7644
rfoot -24.6638 -7.0775
rtoes -36.5597
lfemur -39.2525 -7.44115 -22.1988
ltibia 14.0167
lfoot -3.30536 3.35528
ltoes -35.3631
